<?xml version="1.0" encoding="utf-8"?>
<svg viewBox="44 26 336 103" xmlns="http://www.w3.org/2000/svg">
  <defs>
    <style id="bx-google-fonts">@import url(https://fonts.googleapis.com/css?family=Montserrat:400,700);</style>
  </defs>
  <path d="M 310 60 L 335 45 L 366 45 L 366 95 L 220 95 L 195 110 L 58 110 L 58 60 Z" style="fill: rgb(88, 88, 88); stroke-linecap: butt; stroke-linejoin: round; stroke-width: 25px; stroke: rgb(88, 88, 88);"/>
  <path d="M 85.20018005371094 77.80000305175781 C 85.20018005371094 77.80000305175781 85.20018005371094 77.02666473388672 85.20018005371094 75.47999572753906 C 85.20018005371094 73.93333435058594 84.3335189819336 72.27333068847656 82.60018920898438 70.5 C 80.87351989746094 68.72000122070312 78.74018859863281 67.83000183105469 76.20018768310547 67.83000183105469 C 73.65351867675781 67.83000183105469 71.45684814453125 68.72000122070312 69.61018371582031 70.5 C 67.76351928710938 72.27333068847656 66.8401870727539 74.69667053222656 66.8401870727539 77.77000427246094 C 66.8401870727539 80.84333801269531 67.74018859863281 83.32666778564453 69.5401840209961 85.22000122070312 C 71.3401870727539 87.11333465576172 73.53352355957031 88.05999755859375 76.12018585205078 88.05999755859375 C 78.71351623535156 88.05999755859375 80.87351989746094 87.12666320800781 82.60018920898438 85.26000213623047 C 84.3335189819336 83.38666534423828 85.20018005371094 80.9000015258789 85.20018005371094 77.80000305175781 M 86.71018981933594 91.44999694824219 C 83.30352020263672 95.24333190917969 79.06684875488281 97.13999938964844 74.00018310546875 97.13999938964844 C 68.93351745605469 97.13999938964844 64.66018676757812 95.42333221435547 61.18018341064453 91.98999786376953 C 57.70018768310547 88.5566635131836 55.96018600463867 83.97333526611328 55.96018600463867 78.23999786376953 C 55.96018600463867 72.5 57.750186920166016 67.7933349609375 61.33018493652344 64.1199951171875 C 64.90351867675781 60.45333480834961 68.99351501464844 58.619998931884766 73.60018920898438 58.619998931884766 C 78.21351623535156 58.619998931884766 82.03018188476562 60.51333236694336 85.05018615722656 64.30000305175781 L 85.05018615722656 59.189998626708984 L 95.85018920898438 59.189998626708984 L 95.85018920898438 92.95999908447266 C 95.85018920898438 96.413330078125 95.25018310546875 99.48666381835938 94.05018615722656 102.18000030517578 C 92.85018920898438 104.86666870117188 91.24351501464844 106.97666931152344 89.23018646240234 108.51000213623047 C 85.24351501464844 111.67666625976562 80.5401840209961 113.26000213623047 75.12018585205078 113.26000213623047 C 72.24018859863281 113.26000213623047 69.30018615722656 112.7933349609375 66.30018615722656 111.86000061035156 C 63.30018615722656 110.92666625976562 60.67018508911133 109.59333038330078 58.410186767578125 107.86000061035156 L 62.590187072753906 99.7300033569336 C 66.14351654052734 102.41666412353516 69.90018463134766 103.76000213623047 73.86018371582031 103.76000213623047 C 77.82018280029297 103.76000213623047 80.95018768310547 102.77666473388672 83.25018310546875 100.80999755859375 C 85.55685424804688 98.84333038330078 86.71018981933594 95.72333526611328 86.71018981933594 91.44999694824219 Z M 126.40345001220703 68.77000427246094 C 123.18345642089844 68.77000427246094 120.78345489501953 69.91000366210938 119.20345306396484 72.19000244140625 C 117.61678314208984 74.47000122070312 116.82345581054688 77.47999572753906 116.82345581054688 81.22000122070312 L 116.82345581054688 98 L 106.02345275878906 98 L 106.02345275878906 59.2599983215332 L 116.82345581054688 59.2599983215332 L 116.82345581054688 64.3800048828125 C 118.21678161621094 62.7933349609375 119.956787109375 61.4466667175293 122.04344940185547 60.34000015258789 C 124.13011932373047 59.2400016784668 126.25344848632812 58.66666793823242 128.4134521484375 58.619998931884766 L 128.4934539794922 68.77000427246094 L 126.40345001220703 68.77000427246094 Z M 168.49420166015625 98 L 158.33419799804688 98 L 158.33419799804688 93.31999969482422 C 155.55419921875 96.82666778564453 152.11087036132812 98.58000183105469 148.0041961669922 98.58000183105469 C 143.90420532226562 98.58000183105469 140.4608612060547 97.38999938964844 137.6741943359375 95.01000213623047 C 134.8875274658203 92.63666534423828 133.49420166015625 89.47000122070312 133.49420166015625 85.51000213623047 C 133.49420166015625 81.55000305175781 134.9342041015625 78.586669921875 137.81419372558594 76.62000274658203 C 140.69419860839844 74.64666748046875 144.630859375 73.66000366210938 149.6241912841797 73.66000366210938 L 157.69419860839844 73.66000366210938 L 157.69419860839844 73.44999694824219 C 157.69419860839844 69.32333374023438 155.50753784179688 67.26000213623047 151.1342010498047 67.26000213623047 C 149.2675323486328 67.26000213623047 147.28753662109375 67.62999725341797 145.19419860839844 68.37000274658203 C 143.10752868652344 69.11666870117188 141.3441925048828 70.04000091552734 139.90420532226562 71.13999938964844 L 135.08419799804688 64.16000366210938 C 140.17086791992188 60.46666717529297 145.97752380371094 58.619998931884766 152.5041961669922 58.619998931884766 C 157.2108612060547 58.619998931884766 161.0508575439453 59.7933349609375 164.02420043945312 62.13999938964844 C 167.0041961669922 64.49333190917969 168.49420166015625 68.21333312988281 168.49420166015625 73.30000305175781 L 168.49420166015625 98 M 157.61419677734375 83.23999786376953 L 157.61419677734375 81.37000274658203 L 150.8542022705078 81.37000274658203 C 146.53419494628906 81.37000274658203 144.3741912841797 82.71333312988281 144.3741912841797 85.4000015258789 C 144.3741912841797 86.7933349609375 144.8875274658203 87.86000061035156 145.91419982910156 88.5999984741211 C 146.94752502441406 89.34666442871094 148.4241943359375 89.72000122070312 150.3441925048828 89.72000122070312 C 152.26419067382812 89.72000122070312 153.95753479003906 89.13333129882812 155.4241943359375 87.95999908447266 C 156.8842010498047 86.77999877929688 157.61419677734375 85.2066650390625 157.61419677734375 83.23999786376953 Z M 185.00701904296875 113.26000213623047 C 181.21368408203125 113.26000213623047 177.63702392578125 111.72666931152344 174.2770233154297 108.66000366210938 L 179.17701721191406 100.66000366210938 C 180.9970245361328 102.44000244140625 182.8670196533203 103.33000183105469 184.78701782226562 103.33000183105469 C 185.79368591308594 103.33000183105469 186.6570281982422 102.836669921875 187.37701416015625 101.8499984741211 C 188.09701538085938 100.87000274658203 188.45701599121094 99.82666778564453 188.45701599121094 98.72000122070312 C 188.45701599121094 97.61333465576172 183.46702575683594 84.45999908447266 173.4870147705078 59.2599983215332 L 185.00701904296875 59.2599983215332 L 194.43702697753906 83.37999725341797 L 203.8670196533203 59.2599983215332 L 215.38702392578125 59.2599983215332 L 197.38702392578125 104.91000366210938 C 196.3336944580078 107.55000305175781 194.6903533935547 109.60333251953125 192.45701599121094 111.06999969482422 C 190.22369384765625 112.52999877929688 187.7403564453125 113.26000213623047 185.00701904296875 113.26000213623047 Z M 256.3121643066406 77.12000274658203 L 256.3121643066406 98 L 245.44215393066406 98 L 245.44215393066406 76.83000183105469 C 245.44215393066406 73.75666809082031 244.97215270996094 71.5 244.0321502685547 70.05999755859375 C 243.09881591796875 68.62000274658203 241.5888214111328 67.9000015258789 239.5021514892578 67.9000015258789 C 237.41549682617188 67.9000015258789 235.56549072265625 68.68000030517578 233.9521484375 70.23999786376953 C 232.34548950195312 71.80000305175781 231.5421600341797 74.09333801269531 231.5421600341797 77.12000274658203 L 231.5421600341797 98 L 220.74215698242188 98 L 220.74215698242188 59.2599983215332 L 231.5421600341797 59.2599983215332 L 231.5421600341797 63.65999984741211 C 234.52215576171875 60.29999923706055 237.93215942382812 58.619998931884766 241.77215576171875 58.619998931884766 C 244.2188262939453 58.619998931884766 246.43882751464844 59.34000015258789 248.43215942382812 60.779998779296875 C 250.4188232421875 62.220001220703125 251.9188232421875 63.970001220703125 252.93215942382812 66.02999877929688 C 254.4188232421875 63.676666259765625 256.4221496582031 61.85333251953125 258.9421691894531 60.560001373291016 C 261.462158203125 59.266666412353516 263.9921569824219 58.619998931884766 266.53216552734375 58.619998931884766 C 271.0921630859375 58.619998931884766 274.7655029296875 59.973331451416016 277.5521545410156 62.68000030517578 C 280.33880615234375 65.3933334350586 281.7321472167969 69.31999969482422 281.7321472167969 74.45999908447266 L 281.7321472167969 98 L 270.8521728515625 98 L 270.8521728515625 76.83000183105469 C 270.8521728515625 70.87666320800781 268.6688232421875 67.9000015258789 264.3021545410156 67.9000015258789 C 262.14215087890625 67.9000015258789 260.27215576171875 68.68000030517578 258.6921691894531 70.23999786376953 C 257.1054992675781 71.80000305175781 256.3121643066406 74.09333801269531 256.3121643066406 77.12000274658203 Z M 324.3533630371094 98 L 314.193359375 98 L 314.193359375 93.31999969482422 C 311.4133605957031 96.82666778564453 307.97003173828125 98.58000183105469 303.8633728027344 98.58000183105469 C 299.76336669921875 98.58000183105469 296.3200378417969 97.38999938964844 293.53338623046875 95.01000213623047 C 290.7467041015625 92.63666534423828 289.3533630371094 89.47000122070312 289.3533630371094 85.51000213623047 C 289.3533630371094 81.55000305175781 290.7933654785156 78.586669921875 293.6733703613281 76.62000274658203 C 296.5533752441406 74.64666748046875 300.49005126953125 73.66000366210938 305.4833679199219 73.66000366210938 L 313.5533752441406 73.66000366210938 L 313.5533752441406 73.44999694824219 C 313.5533752441406 69.32333374023438 311.36669921875 67.26000213623047 306.9933776855469 67.26000213623047 C 305.126708984375 67.26000213623047 303.1466979980469 67.62999725341797 301.0533752441406 68.37000274658203 C 298.9667053222656 69.11666870117188 297.203369140625 70.04000091552734 295.76336669921875 71.13999938964844 L 290.943359375 64.16000366210938 C 296.030029296875 60.46666717529297 301.8367004394531 58.619998931884766 308.3633728027344 58.619998931884766 C 313.0700378417969 58.619998931884766 316.9100341796875 59.7933349609375 319.88336181640625 62.13999938964844 C 322.8633728027344 64.49333190917969 324.3533630371094 68.21333312988281 324.3533630371094 73.30000305175781 L 324.3533630371094 98 M 313.473388671875 83.23999786376953 L 313.473388671875 81.37000274658203 L 306.71337890625 81.37000274658203 C 302.39337158203125 81.37000274658203 300.2333679199219 82.71333312988281 300.2333679199219 85.4000015258789 C 300.2333679199219 86.7933349609375 300.7467041015625 87.86000061035156 301.77337646484375 88.5999984741211 C 302.80670166015625 89.34666442871094 304.28338623046875 89.72000122070312 306.203369140625 89.72000122070312 C 308.1233825683594 89.72000122070312 309.81671142578125 89.13333129882812 311.28338623046875 87.95999908447266 C 312.7433776855469 86.77999877929688 313.473388671875 85.2066650390625 313.473388671875 83.23999786376953 Z M 344.9662170410156 98 L 334.16619873046875 98 L 334.16619873046875 59.2599983215332 L 344.9662170410156 59.2599983215332 L 344.9662170410156 98 M 335.06622314453125 54.33000183105469 C 335.06622314453125 54.33000183105469 334.7595520019531 54.02333450317383 334.1462097167969 53.40999984741211 C 333.53955078125 52.8033332824707 333.2362060546875 51.61000061035156 333.2362060546875 49.83000183105469 C 333.2362060546875 48.05666732788086 333.8462219238281 46.55666732788086 335.06622314453125 45.33000183105469 C 336.2928771972656 44.11000061035156 337.7928771972656 43.5 339.56622314453125 43.5 C 341.3462219238281 43.5 342.8462219238281 44.11000061035156 344.06622314453125 45.33000183105469 C 345.2928771972656 46.55666732788086 345.9062194824219 48.05666732788086 345.9062194824219 49.83000183105469 C 345.9062194824219 51.61000061035156 345.2928771972656 53.11000061035156 344.06622314453125 54.33000183105469 C 342.8462219238281 55.55666732788086 341.3462219238281 56.16999816894531 339.56622314453125 56.16999816894531 C 337.7928771972656 56.16999816894531 336.2928771972656 55.55666732788086 335.06622314453125 54.33000183105469 Z M 365.968017578125 98 L 355.1679992675781 98 L 355.1679992675781 44.58000183105469 L 365.968017578125 44.58000183105469 L 365.968017578125 98 Z " transform="matrix(1, 0, 0, 1, 0, 0)" style="white-space: pre; fill: rgb(255, 255, 255); stroke-width: 0px;"/>
</svg>